<?xml version="1.0" encoding="UTF-8" standalone="no"?>
<svg
   xmlns:dc="http://purl.org/dc/elements/1.1/"
   xmlns:cc="http://creativecommons.org/ns#"
   xmlns:rdf="http://www.w3.org/1999/02/22-rdf-syntax-ns#"
   xmlns:svg="http://www.w3.org/2000/svg"
   xmlns="http://www.w3.org/2000/svg"
   xmlns:sodipodi="http://sodipodi.sourceforge.net/DTD/sodipodi-0.dtd"
   xmlns:inkscape="http://www.inkscape.org/namespaces/inkscape"
   width="512"
   height="512"
   viewBox="0 0 512 512"
   version="1.1"
   preserveAspectRatio="xMidYMid"
   id="svg22"
   sodipodi:docname="reactjs.svg"
   inkscape:version="0.92.5 (2060ec1f9f, 2020-04-08)">
  <metadata
     id="metadata28">
    <rdf:RDF>
      <cc:Work
         rdf:about="">
        <dc:format>image/svg+xml</dc:format>
        <dc:type
           rdf:resource="http://purl.org/dc/dcmitype/StillImage" />
        <dc:title></dc:title>
      </cc:Work>
    </rdf:RDF>
  </metadata>
  <defs
     id="defs26" />
  <sodipodi:namedview
     pagecolor="#ffffff"
     bordercolor="#666666"
     borderopacity="1"
     objecttolerance="10"
     gridtolerance="10"
     guidetolerance="10"
     inkscape:pageopacity="0"
     inkscape:pageshadow="2"
     inkscape:window-width="1366"
     inkscape:window-height="704"
     id="namedview24"
     showgrid="false"
     inkscape:zoom="0.65373961"
     inkscape:cx="17.099578"
     inkscape:cy="266.16102"
     inkscape:window-x="0"
     inkscape:window-y="0"
     inkscape:window-maximized="1"
     inkscape:current-layer="g20" />
  <g
     id="g20"
     transform="translate(0,151)">
    <g
       id="g279"
       transform="matrix(1.1107236,0,0,1.1107236,-28.345233,-11.625974)">
      <circle
         style="fill:#222222;fill-opacity:1;stroke-width:1.16063738"
         id="path273"
         cx="256"
         cy="-105"
         r="221.04216"
         transform="scale(1,-1)" />
      <path
         style="fill:#61dafb;fill-opacity:1;stroke-width:1.40295362"
         inkscape:connector-curvature="0"
         d="m 371.72037,48.797663 c -3.7258,-1.282419 -7.58649,-2.495799 -11.56162,-3.643329 0.65335,-2.666495 1.25302,-5.298463 1.78618,-7.885685 8.75192,-42.4829397 3.02961,-76.707495 -16.51037,-87.975675 -18.73641,-10.804689 -49.37836,0.46093 -80.32526,27.39307 -2.97592,2.589775 -5.96014,5.331703 -8.94307,8.205326 -1.98757,-1.901258 -3.97194,-3.738585 -5.95119,-5.496003 -32.43325,-28.797596 -64.94259,-40.9333 -84.4634,-29.632512 -18.7185,10.836017 -24.26181,43.0103591 -16.38381,83.271764 0.76076,3.888812 1.65002,7.860103 2.65563,11.89788 -4.60099,1.306076 -9.0428,2.698454 -13.29282,4.179695 -38.02453,13.257027 -62.308707,34.034053 -62.308707,55.585266 0,22.25827 26.069087,44.58365 65.674577,58.12068 3.12551,1.06827 6.36864,2.07835 9.71087,3.03728 -1.08489,4.36702 -2.02848,8.64645 -2.82057,12.82039 -7.51168,39.56265 -1.64553,70.97687 17.02311,81.74448 19.28299,11.11987 51.64528,-0.31005 83.15795,-27.85591 2.49069,-2.17743 4.99033,-4.48656 7.49444,-6.90692 3.24569,3.1255 6.48626,6.08351 9.70959,8.85803 30.52368,26.26665 60.67083,36.87316 79.3222,26.0755 19.26382,-11.15183 25.52441,-44.8982 17.39644,-85.95615 -0.62075,-3.13573 -1.34314,-6.33924 -2.15442,-9.59963 2.27269,-0.6719 4.50382,-1.36553 6.67934,-2.08666 41.17368,-13.64187 67.96261,-35.69557 67.96261,-58.25109 0,-21.629214 -25.06731,-42.546241 -63.8577,-55.899797 z m -8.9303,99.587147 c -1.9639,0.65018 -3.97895,1.27861 -6.03236,1.88785 -4.54538,-14.38986 -10.68003,-29.69134 -18.18724,-45.50041 7.16391,-15.432532 13.06139,-30.538396 17.47955,-44.834902 3.67401,1.063144 7.23998,2.184464 10.6762,3.367794 33.23556,11.44143 53.50882,28.357766 53.50882,41.392318 0,13.88416 -21.89452,31.90775 -57.44497,43.68735 z m -14.75105,29.22978 c 3.59412,18.15528 4.10746,34.56977 1.72675,47.40167 -2.13909,11.53028 -6.44089,19.21778 -11.7598,22.29661 -11.31869,6.55148 -35.5236,-1.96455 -61.62785,-24.42803 -2.99254,-2.57506 -6.00681,-5.32467 -9.03066,-8.23473 10.12001,-11.06809 20.23426,-23.93513 30.10559,-38.22525 17.36256,-1.5407 33.76617,-4.0595 48.64189,-7.49828 0.73263,2.95546 1.38343,5.85401 1.94408,8.68801 z m -149.17264,68.5661 c -11.0585,3.90543 -19.86603,4.01732 -25.19006,0.94743 -11.32892,-6.53421 -16.03859,-31.75689 -9.61434,-65.59084 0.73584,-3.87476 1.61166,-7.85499 2.62111,-11.92344 14.71269,3.25335 30.99612,5.59444 48.40024,7.00536 9.93781,13.98326 20.34423,26.83625 30.83119,38.09037 -2.29123,2.21195 -4.5735,4.31778 -6.843,6.30215 -13.93468,12.18044 -27.89874,20.82241 -40.20514,25.16897 z M 147.0587,148.2998 c -17.51279,-5.9857 -31.97552,-13.76526 -41.88904,-22.25443 -8.907906,-7.62868 -13.405336,-15.20239 -13.405336,-21.34791 0,-13.078032 19.497796,-29.759103 52.016726,-41.096967 3.94572,-1.375759 8.07619,-2.672244 12.36265,-3.890093 4.49423,14.619355 10.3898,29.904218 17.50448,45.36041 -7.20674,15.68568 -13.18605,31.21411 -17.7244,46.0048 -3.05582,-0.87839 -6.01639,-1.80281 -8.86508,-2.77581 z M 164.42511,30.088111 c -6.74966,-34.4949744 -2.26694,-60.51676 9.01339,-67.0465 12.01551,-6.956148 38.58517,2.961844 66.58876,27.8271497 1.79004,1.5892828 3.58707,3.2527231 5.38925,4.9737005 -10.43518,11.2048879 -20.74634,23.9613478 -30.59593,37.8621328 -16.8914,1.565627 -33.06041,4.080606 -47.92653,7.448407 -0.93465,-3.759689 -1.76253,-7.45352 -2.46894,-11.06489 z m 154.92372,38.254662 c -3.55382,-6.138491 -7.20227,-12.131867 -10.92168,-17.961583 11.45934,1.448638 22.43854,3.371634 32.74907,5.72487 -3.09546,9.920557 -6.95359,20.293086 -11.49513,30.926447 -3.25784,-6.18516 -6.70363,-12.421468 -10.33226,-18.689734 z M 256.17133,6.8076131 c 7.07698,7.6670459 14.16418,16.2271759 21.13503,25.5148289 -7.02456,-0.331795 -14.13604,-0.5044 -21.30636,-0.5044 -7.10254,0 -14.16162,0.168772 -21.14269,0.49481 6.97789,-9.201343 14.12645,-17.749974 21.31402,-25.5052389 z M 192.58916,68.448891 c -3.55,6.155755 -6.93186,12.358179 -10.13855,18.57211 -4.46802,-10.596281 -8.29035,-21.016125 -11.41266,-31.07732 10.24723,-2.293143 21.17467,-4.168189 32.56112,-5.589337 -3.77183,5.883416 -7.45032,11.920901 -11.00991,18.093275 z m 11.33786,91.686149 c -11.76427,-1.31248 -22.856,-3.091 -33.10067,-5.32085 3.17216,-10.24083 7.07889,-20.88315 11.64152,-31.70765 3.21501,6.20945 6.6103,12.41443 10.18203,18.58361 h 6.3e-4 c 3.63822,6.28489 7.40749,12.44128 11.27649,18.44489 z m 52.6688,43.53394 c -7.27196,-7.84605 -14.52538,-16.5251 -21.60938,-25.86069 6.87687,0.26978 13.888,0.40787 21.01356,0.40787 7.32055,0 14.55735,-0.16495 21.68035,-0.48203 -6.99386,9.50374 -14.0555,18.1962 -21.08453,25.93485 z m 73.23168,-81.11415 c 4.80044,10.9415 8.84716,21.5282 12.06025,31.5945 -10.41344,2.37561 -21.65668,4.28901 -33.50279,5.71081 3.72835,-5.90836 7.40876,-12.00465 11.02525,-18.27548 3.65866,-6.34434 7.13259,-12.69828 10.41729,-19.02983 z m -23.70755,11.36471 c -5.61429,9.73452 -11.37815,19.02728 -17.22959,27.79902 -10.65767,0.76205 -21.6682,1.15456 -32.89036,1.15456 -11.17676,0 -22.04858,-0.34713 -32.51764,-1.02671 -6.08735,-8.8868 -11.97652,-18.20706 -17.55499,-27.84313 h 0.002 c -5.56376,-9.60984 -10.6845,-19.3009 -15.32449,-28.93759 4.63871,-9.659078 9.74602,-19.360999 15.27782,-28.953585 l -0.002,0.0017 c 5.5465,-9.618168 11.38389,-18.893035 17.41497,-27.72423 10.68132,-0.807425 21.63434,-1.228719 32.70368,-1.228719 h 6.4e-4 c 11.11923,0 22.0863,0.424491 32.76442,1.238953 5.93902,8.766626 11.73679,18.011442 17.30503,27.630882 5.63152,9.727483 10.80468,19.364831 15.48303,28.816779 -4.66429,9.61433 -9.82594,19.34885 -15.43253,29.07184 z m 31.65076,-171.334384 c 12.02702,6.935691 16.70408,34.9073209 9.14763,71.586758 -0.48202,2.340458 -1.02478,4.72438 -1.6142,7.140269 -14.90065,-3.43812 -31.08115,-5.996572 -48.02179,-7.585848 -9.86877,-14.053582 -20.09553,-26.8298589 -30.36066,-37.8909065 2.75982,-2.6549831 5.51582,-5.1865853 8.26029,-7.5756225 26.51534,-23.075284 51.29753,-32.18585 62.58873,-25.67465 z M 256,72.626034 c 17.71225,0 32.07143,14.358515 32.07143,32.071426 0,17.71224 -14.35918,32.07141 -32.07143,32.07141 -17.71225,0 -32.07142,-14.35917 -32.07142,-32.07141 0,-17.712911 14.35917,-32.071426 32.07142,-32.071426 z"
         id="path2-5" />
    </g>
  </g>
</svg>
