<?xml version="1.0" encoding="UTF-8" standalone="no"?>
<svg
   xmlns:dc="http://purl.org/dc/elements/1.1/"
   xmlns:cc="http://creativecommons.org/ns#"
   xmlns:rdf="http://www.w3.org/1999/02/22-rdf-syntax-ns#"
   xmlns:svg="http://www.w3.org/2000/svg"
   xmlns="http://www.w3.org/2000/svg"
   xmlns:sodipodi="http://sodipodi.sourceforge.net/DTD/sodipodi-0.dtd"
   xmlns:inkscape="http://www.inkscape.org/namespaces/inkscape"
   width="512"
   height="512"
   viewBox="0 0 512 512"
   version="1.1"
   preserveAspectRatio="xMidYMid"
   id="svg22"
   sodipodi:docname="mysql.svg"
   inkscape:version="0.92.5 (2060ec1f9f, 2020-04-08)">
  <metadata
     id="metadata28">
    <rdf:RDF>
      <cc:Work
         rdf:about="">
        <dc:format>image/svg+xml</dc:format>
        <dc:type
           rdf:resource="http://purl.org/dc/dcmitype/StillImage" />
        <dc:title></dc:title>
      </cc:Work>
    </rdf:RDF>
  </metadata>
  <defs
     id="defs26" />
  <sodipodi:namedview
     pagecolor="#ffffff"
     bordercolor="#666666"
     borderopacity="1"
     objecttolerance="10"
     gridtolerance="10"
     guidetolerance="10"
     inkscape:pageopacity="0"
     inkscape:pageshadow="2"
     inkscape:window-width="1366"
     inkscape:window-height="704"
     id="namedview24"
     showgrid="false"
     inkscape:zoom="0.65373961"
     inkscape:cx="47.692798"
     inkscape:cy="260.04237"
     inkscape:window-x="0"
     inkscape:window-y="0"
     inkscape:window-maximized="1"
     inkscape:current-layer="g20" />
  <g
     id="g20"
     transform="translate(0,151)">
    <g
       transform="matrix(1.9503102,0,0,1.9503102,6.5026425,-139.86578)"
       id="g25"
       style="fill:#00b2f8;fill-opacity:1">
      <path
         style="fill:#00b2f8;fill-opacity:1"
         inkscape:connector-curvature="0"
         id="path2-2"
         d="m 235.64828,194.21163 c -13.91843,-0.34707 -24.70541,1.04564 -33.75268,4.87233 -2.6097,1.04345 -6.78567,1.04454 -7.13383,4.3495 1.39273,1.39273 1.56626,3.65426 2.78433,5.56759 2.08909,3.4785 5.74115,8.17729 9.04722,10.61346 3.65314,2.78324 7.30737,5.56648 11.1341,8.00264 6.78567,4.17597 14.4412,6.61102 21.05226,10.78697 3.8289,2.43395 7.65444,5.56759 11.48225,8.17729 1.91448,1.39052 3.13145,3.65313 5.56762,4.52304 v -0.52172 c -1.21811,-1.56625 -1.56627,-3.82778 -2.78324,-5.56759 -1.73872,-1.7398 -3.47961,-3.30606 -5.21941,-5.04586 -5.04588,-6.78458 -11.30877,-12.7003 -18.09435,-17.57153 -5.56649,-3.8278 -17.7462,-9.0472 -20.00779,-15.4847 0,0 -0.17462,-0.17354 -0.34816,-0.34708 3.82777,-0.34818 8.35082,-1.73979 12.00509,-2.78435 5.91578,-1.56625 11.30877,-1.21807 17.39799,-2.78324 2.78324,-0.69635 5.56761,-1.56625 8.35085,-2.43616 v -1.56515 c -3.13031,-3.13254 -5.39294,-7.30739 -8.69901,-10.26529 -8.87256,-7.65667 -18.61614,-15.13651 -28.70676,-21.39939 -5.39408,-3.4796 -12.35329,-5.74224 -18.09435,-8.69902 -2.08687,-1.04564 -5.56761,-1.56625 -6.78459,-3.30607 -3.13252,-3.82778 -4.87232,-8.87254 -7.13384,-13.39672 -5.04365,-9.56998 -9.91712,-20.18127 -14.26657,-30.27191 -3.13031,-6.78568 -5.04476,-13.571381 -8.87255,-19.834147 C 136.65317,60.247905 117.1671,42.32811 87.242308,24.755457 80.804823,21.102305 73.150378,19.536054 64.973063,17.622712 60.624665,17.448068 56.274047,17.100997 51.924507,16.926352 49.141266,15.708258 46.356919,12.403309 43.920746,10.837044 34.005876,4.5730961 8.429423,-8.9960711 1.1220548,8.9237024 -3.5756358,20.232452 8.0812675,31.366477 12.082548,37.108681 c 2.958988,4.001337 6.785671,8.52437 8.873657,13.048565 1.218089,2.955677 1.565157,6.089302 2.783246,9.220731 2.784342,7.653362 5.392941,16.179897 9.047189,23.313829 1.914445,3.653152 4.001326,7.480936 6.43749,10.78586 1.391616,1.91334 3.826679,2.784347 4.349499,5.91577 -2.435054,3.479594 -2.609701,8.699014 -4.002431,13.048554 -6.262843,19.6595 -3.826684,44.01681 5.045873,58.4569 2.783241,4.34841 9.395336,13.91953 18.267961,10.26529 7.829109,-3.13144 6.089302,-13.04855 8.350828,-21.74757 0.522829,-2.08909 0.174642,-3.47959 1.218085,-4.87123 9.06e-4,0.17354 0,0.34818 0,0.34818 2.436159,4.87123 4.871226,9.56895 7.132744,14.4401 5.394047,8.52436 14.788354,17.39801 22.617411,23.31384 4.17708,3.13031 7.48204,8.52438 12.70142,10.43881 v -0.52283 h -0.34818 c -1.04454,-1.56625 -2.6097,-2.26152 -4.00132,-3.47959 -3.13143,-3.13143 -6.61214,-6.95923 -9.04719,-10.43881 -7.306285,-9.74359 -13.744889,-20.52945 -19.485981,-31.66458 -2.783241,-5.39295 -5.219401,-11.30877 -7.480928,-16.70169 -1.044543,-2.08908 -1.044543,-5.2194 -2.784346,-6.26284 -2.609701,3.82668 -6.436384,7.13275 -8.350829,11.83045 -3.303854,7.48092 -3.653143,16.70168 -4.871227,26.27053 -0.695269,0.17465 -0.348187,0 -0.69637,0.34819 -5.566486,-1.39273 -7.480931,-7.13275 -9.568954,-12.00509 -5.219405,-12.35212 -6.089301,-32.18637 -1.565156,-46.45181 1.218084,-3.65425 6.437489,-15.136527 4.349503,-18.616138 C 50.0111,92.086027 46.530392,90.172697 44.617053,87.562997 42.355526,84.256927 39.919367,80.082065 38.35421,76.427858 34.178238,66.685381 32.090261,55.898411 27.567235,46.154815 25.47925,41.630666 21.826107,36.934084 18.868219,32.759206 15.563264,28.061528 11.909007,24.755457 9.2992702,19.187851 8.4304697,17.274509 7.2112844,14.143092 8.6029095,12.055097 8.9510921,10.663485 9.6463473,10.14176 11.039069,9.793575 c 2.261527,-1.9144455 8.699016,0.521716 10.960493,1.565161 6.437489,2.608589 11.830444,5.045873 17.224491,8.699015 2.435058,1.739801 5.044758,5.045872 8.176187,5.915773 h 3.654243 c 5.567588,1.216981 11.830444,0.348166 17.049845,1.913341 9.221836,2.956783 17.571536,7.307389 25.053642,12.005086 22.79206,14.440098 41.58058,34.970664 54.28209,59.501494 2.08799,4.000225 2.95679,7.655565 4.87123,11.830445 3.65425,8.52547 8.17729,17.22449 11.83044,25.57533 3.65314,8.17618 7.13274,16.52814 12.35213,23.31383 2.61081,3.65204 13.04854,5.56648 17.74617,7.48092 3.4796,1.56517 8.87368,2.9579 12.00508,4.87124 5.91469,3.65203 11.83047,7.82912 17.39803,11.83044 2.78433,2.08688 11.48226,6.43749 12.00509,9.916 z" />
      <path
         style="fill:#00b2f8;fill-opacity:1"
         inkscape:connector-curvature="0"
         id="path4-7"
         d="m 58.186489,43.022264 c -2.957883,0 -5.044758,0.349289 -7.132744,0.871017 0,-9.07e-4 0,0.174642 0,0.348182 h 0.348187 c 1.392726,2.78324 3.826683,4.697686 5.566482,7.132735 1.392731,2.783241 2.6097,5.567596 4.002431,8.351943 0.173532,-0.174646 0.347072,-0.348183 0.347072,-0.348183 2.437275,-1.740908 3.654249,-4.524149 3.654249,-8.699015 -1.044548,-1.218085 -1.218089,-2.436164 -2.087986,-3.654249 -1.043443,-1.740912 -3.306075,-2.609699 -4.697691,-4.00243 z" />
    </g>
  </g>
</svg>
