<?xml version="1.0" encoding="UTF-8" standalone="no"?>
<svg
   xmlns:dc="http://purl.org/dc/elements/1.1/"
   xmlns:cc="http://creativecommons.org/ns#"
   xmlns:rdf="http://www.w3.org/1999/02/22-rdf-syntax-ns#"
   xmlns:svg="http://www.w3.org/2000/svg"
   xmlns="http://www.w3.org/2000/svg"
   xmlns:sodipodi="http://sodipodi.sourceforge.net/DTD/sodipodi-0.dtd"
   xmlns:inkscape="http://www.inkscape.org/namespaces/inkscape"
   width="30"
   height="30"
   viewBox="0 0 30 30"
   version="1.1"
   preserveAspectRatio="xMidYMid"
   id="svg6"
   sodipodi:docname="github-icon.svg"
   inkscape:version="0.92.5 (2060ec1f9f, 2020-04-08)">
  <metadata
     id="metadata12">
    <rdf:RDF>
      <cc:Work
         rdf:about="">
        <dc:format>image/svg+xml</dc:format>
        <dc:type
           rdf:resource="http://purl.org/dc/dcmitype/StillImage" />
        <dc:title></dc:title>
      </cc:Work>
    </rdf:RDF>
  </metadata>
  <defs
     id="defs10" />
  <sodipodi:namedview
     pagecolor="#ffffff"
     bordercolor="#666666"
     borderopacity="1"
     objecttolerance="10"
     gridtolerance="10"
     guidetolerance="10"
     inkscape:pageopacity="0"
     inkscape:pageshadow="2"
     inkscape:window-width="1366"
     inkscape:window-height="704"
     id="namedview8"
     showgrid="false"
     inkscape:zoom="10.680141"
     inkscape:cx="17.734787"
     inkscape:cy="14.054571"
     inkscape:window-x="0"
     inkscape:window-y="0"
     inkscape:window-maximized="1"
     inkscape:current-layer="svg6" />
  <path
     style="stroke-width:0.09363172;opacity:1;fill:#1e90ff;fill-opacity:0"
     d="M 10.083476,28.714819 C 6.8354347,27.571649 3.8682598,24.909422 2.2492191,21.685719 1.2669126,19.72983 0.78696867,17.653328 0.78696867,15.359221 c 0,-1.739277 0.17544637,-2.866985 0.68618163,-4.410534 1.6026083,-4.8434184 5.4425546,-8.3304342 10.4679147,-9.5058055 1.23388,-0.2885896 3.551882,-0.3995972 4.817939,-0.230728 3.322637,0.44318 6.299724,1.9620318 8.590778,4.3828473 4.665275,4.9295062 5.187017,12.4776102 1.246376,18.0314632 -1.256893,1.771437 -3.454804,3.625986 -5.393178,4.550642 -1.549143,0.738984 -2.151648,0.852036 -2.473577,0.464135 -0.07042,-0.08485 -0.116939,-0.99453 -0.140556,-2.748482 -0.03303,-2.452654 -0.04887,-2.655863 -0.245835,-3.152269 -0.115795,-0.291836 -0.293086,-0.635557 -0.393979,-0.763823 -0.100894,-0.128265 -0.183444,-0.252363 -0.183444,-0.275774 0,-0.02341 0.221205,-0.06865 0.491567,-0.100543 0.270362,-0.03189 0.823511,-0.14502 1.229221,-0.251405 2.335263,-0.612347 3.834855,-2.076474 4.408618,-4.304353 0.241459,-0.93757 0.297993,-2.903361 0.107954,-3.753792 -0.171407,-0.767059 -0.550479,-1.585037 -0.994143,-2.145209 -0.278875,-0.352108 -0.285693,-0.381871 -0.175998,-0.768247 0.146867,-0.5173052 0.147046,-1.9654032 2.81e-4,-2.5086612 -0.241944,-0.895747 -0.2735,-0.9363172 -0.728281,-0.9363172 -0.610614,0 -1.82623,0.4375043 -2.729346,0.9823011 L 18.580474,8.3942369 17.775083,8.205121 C 16.640547,7.9387112 13.32327,7.9411341 12.194502,8.2091969 L 11.445448,8.3870843 10.626422,7.9049441 C 9.6328145,7.3200317 8.4303555,6.9071953 7.8429302,6.9492965 l -0.416974,0.029885 -0.1786587,0.5617904 c -0.2109539,0.6633426 -0.2530932,2.2155648 -0.076781,2.8282651 0.1095858,0.380821 0.1027118,0.407756 -0.2079252,0.814712 -0.7682052,1.006403 -1.0887529,2.070888 -1.0870011,3.609746 0.00434,3.810473 1.7577416,6.031624 5.2932208,6.705269 1.179809,0.224798 1.123737,0.201749 0.956095,0.393022 -0.218078,0.248818 -0.464398,0.772812 -0.582274,1.238668 -0.09917,0.391925 -0.138969,0.432497 -0.570057,0.5811 -0.258728,0.08919 -0.752963,0.161164 -1.1188665,0.162941 -1.0724037,0.0052 -1.7772045,-0.43574 -2.560201,-1.601752 -0.6811436,-1.014337 -1.7540299,-1.560618 -2.6129518,-1.330435 -0.3028382,0.08116 -0.2643369,0.38109 0.086657,0.675079 0.9727607,0.814772 1.2094456,1.095498 1.6582768,1.966846 0.538403,1.04524 0.9570383,1.491706 1.7428475,1.858713 0.5328469,0.248863 0.6305326,0.26238 1.896067,0.26238 h 1.334279 l -2.7e-5,1.413372 c -2.1e-5,1.228814 -0.02142,1.432161 -0.16388,1.557257 -0.286807,0.251849 -0.523044,0.259783 -1.151301,0.03866 z"
     id="path66"
     inkscape:connector-curvature="0" />
  <path
     style="opacity:1;fill:#1e90ff;fill-opacity:0;stroke-width:0.06620762"
     d="M 10.022843,28.722562 C 9.2513471,28.437222 7.9975276,27.80293 7.2752268,27.332576 6.3514449,26.73102 5.6130284,26.119861 4.7875993,25.273663 2.65794,23.090417 1.3420111,20.420186 0.87706678,17.338563 0.7214867,16.307388 0.72142756,14.397962 0.87694377,13.366105 1.336404,10.317566 2.6291879,7.6737489 4.7243808,5.4978741 7.0230074,3.1107321 9.8958426,1.6530234 13.167706,1.2136367 c 0.922541,-0.1238904 2.714115,-0.1211428 3.681313,0.00565 4.558674,0.59759 8.584249,3.3884766 10.740226,7.4460812 0.713809,1.3434051 1.196811,2.7652081 1.477457,4.3491501 0.218874,1.235311 0.219478,3.45443 0.0013,4.67564 -0.828011,4.634035 -3.611864,8.377747 -7.756729,10.431211 -1.069157,0.529685 -1.950174,0.843554 -2.195203,0.782056 -0.09434,-0.02368 -0.24233,-0.100335 -0.328867,-0.170348 l -0.157339,-0.127297 -0.03778,-2.604608 c -0.0327,-2.254386 -0.05371,-2.65357 -0.156271,-2.968749 -0.15256,-0.468853 -0.337209,-0.831378 -0.581708,-1.142082 l -0.195377,-0.248278 h 0.200826 c 0.110454,0 0.514726,-0.06058 0.898382,-0.134615 3.637158,-0.701899 5.359236,-2.87239 5.356257,-6.750979 -6.95e-4,-0.90891 -0.02481,-1.181403 -0.143546,-1.622086 -0.179212,-0.665145 -0.579131,-1.485085 -0.969591,-1.987922 -0.184975,-0.238211 -0.287013,-0.429658 -0.26536,-0.497879 0.309592,-0.97544 0.294243,-2.060687 -0.04561,-3.2246071 L 22.549899,6.9439654 h -0.394596 c -0.751555,0 -1.815434,0.388319 -2.954074,1.0782461 L 18.580886,8.3980908 17.777765,8.2373949 C 15.800944,7.8418547 13.848511,7.855794 12.021581,8.278492 l -0.58336,0.1349722 -0.54217,-0.3302403 C 9.7019145,7.3558636 8.8264828,7.014132 8.0219277,6.9612871 L 7.4775805,6.9255332 7.4045952,7.1168203 C 7.2716079,7.4653673 7.1462738,8.0143289 7.071644,8.5751373 6.994073,9.1580484 7.0629189,10.001505 7.22929,10.506516 c 0.078596,0.238574 0.072955,0.254392 -0.2371627,0.664932 -0.530246,0.701951 -0.8926713,1.515418 -1.0459465,2.347635 -0.04151,0.225383 -0.073497,0.802026 -0.071082,1.281429 0.016914,3.357256 1.3930947,5.485403 4.1408552,6.40348 0.552046,0.184448 1.700136,0.438067 1.983059,0.438067 0.254825,0 0.256096,0.07961 0.0069,0.430156 -0.125563,0.176607 -0.291591,0.531936 -0.36895,0.789621 -0.232342,0.77393 -0.194108,0.728543 -0.753632,0.894647 -0.708803,0.21042 -1.613003,0.178404 -2.1659394,-0.07669 C 8.2351792,23.457339 7.7491463,23.002683 7.3968463,22.444529 6.8386739,21.560208 6.0583885,21.001171 5.2842834,20.930977 c -0.4651556,-0.04218 -0.6982028,0.01031 -0.7876279,0.177405 -0.08869,0.165719 0.1098362,0.405941 0.6836223,0.8272 0.5383842,0.395266 0.8937645,0.872628 1.3397921,1.799665 0.2930202,0.60902 0.4224152,0.799196 0.750339,1.102795 0.7618465,0.705336 1.5358362,0.940882 2.9179531,0.88801 0.491592,-0.01881 0.956274,-0.05387 1.032627,-0.07793 0.130481,-0.04111 0.141423,-0.01299 0.182071,0.467874 0.02379,0.281389 0.04314,0.901884 0.043,1.378878 -1.99e-4,0.749982 -0.01812,0.896583 -0.132446,1.084087 -0.24188,0.396719 -0.52211,0.427896 -1.290771,0.143604 z"
     id="path873"
     inkscape:connector-curvature="0" />
  <path
     id="path2"
     d="m 28.843845,15.665223 h -2.096698 c 0,-6.8434791 -5.568512,-12.4119907 -12.41199,-12.4119904 l -6.42e-4,-2.096056 c 8.000322,0.00128 14.507404,6.5083661 14.50933,14.5080464 z M 14.333873,4.7785708 14.332573,6.873985 c 4.848213,-3e-7 8.792522,3.944308 8.792522,8.792521 l 2.096698,-0.0025 C 25.221167,9.6646607 20.335077,4.7785705 14.333873,4.7785708 Z m 6.42e-4,3.7395181 6.42e-4,2.0973401 c 2.784898,-0.0013 5.053003,2.266822 5.05172,5.051719 h 2.096698 C 21.482275,11.725407 18.27433,8.5174466 14.334515,8.5180889 Z M 3.403567,18.179206 c 1.253781,1.474622 2.556353,2.904305 3.89937,4.296112 l -0.0064,0.0064 c 0.03788,0.0366 0.0764,0.06998 0.11363,0.10721 0.03788,0.03788 0.07126,0.0764 0.106568,0.112988 l 0.0071,-0.0071 c 1.391807,1.343016 2.822775,2.646872 4.296755,3.900013 3.855073,3.283714 9.030053,2.849094 11.16527,-0.51615 0.0963,-0.145087 0.22084,-0.272199 0.288248,-0.432051 0.390964,-0.948201 0.427556,-2.020945 0.663162,-3.021788 0.294026,-1.28267 -5.597401,-3.775469 -6.109057,-2.181439 -0.186173,0.591903 -0.466717,2.4607 -0.839064,2.952454 -0.331905,0.439749 -1.144006,0.231106 -1.653737,-0.201587 -1.344942,-1.143362 -2.843318,-2.824059 -4.156803,-4.152952 l 0.0019,-0.0019 c -0.03531,-0.03531 -0.07383,-0.07254 -0.11042,-0.109136 -0.0366,-0.0366 -0.07447,-0.07575 -0.109136,-0.11042 l -0.0025,0.0025 C 9.629523,17.508981 7.948826,16.010606 6.805465,14.665664 6.37213,14.155292 6.162845,13.342549 6.603884,13.01193 7.095638,12.639584 8.964435,12.359039 9.556338,12.172866 11.150367,11.66121 8.655643,5.769142 7.374899,6.0638096 6.373414,6.2987733 5.300028,6.334724 4.353111,6.7269721 4.191975,6.7930961 4.064863,6.9189233 3.920418,7.014578 0.55447103,9.1491527 0.12113603,14.324132 3.403567,18.179206 Z"
     inkscape:connector-curvature="0"
     style="fill:#1e90ff;fill-opacity:1;stroke-width:0.90789312" />
</svg>
