<?xml version="1.0" encoding="utf-8"?>
<!-- Generator: Adobe Illustrator 18.0.0, SVG Export Plug-In . SVG Version: 6.00 Build 0)  -->
<!DOCTYPE svg PUBLIC "-//W3C//DTD SVG 1.1//EN" "http://www.w3.org/Graphics/SVG/1.1/DTD/svg11.dtd">
<svg version="1.1" xmlns="http://www.w3.org/2000/svg" xmlns:xlink="http://www.w3.org/1999/xlink" x="0px" y="0px"
	 viewBox="0 0 313.6 280" enable-background="new 0 0 313.6 280" xml:space="preserve">
   <style>
      .gradient-map {
        mix-blend-mode: color;
      }
   </style>
<g id="svg-container">
  <g>
    <path fill="#042E47" d="M273,172.7c0-0.6-0.3-1.2-0.8-1.5l-83-48.4c-0.5-0.3-1.2-0.3-1.7,0L59.8,195.9c-0.5,0.3-0.8,0.8-0.8,1.3
      c0,0,0,0,0,0v5.3l0,0c0,0.5,0.3,1,0.8,1.3l83.3,48.4c0.5,0.3,1.2,0.3,1.7,0l127.3-73.1c0.5-0.3,0.8-0.8,0.8-1.3l0,0v-0.1
      c0,0,0-0.1,0-0.1L273,172.7C273,172.7,273,172.7,273,172.7z"/>
    <path opacity="0.9" fill="#3A3A3A" d="M273,172.7c0-0.2,0-0.4-0.1-0.5c-0.1,0.4-0.4,0.7-0.7,0.9l-127.3,73.1
      c-0.5,0.3-1.2,0.3-1.7,0l-83.3-48.4c-0.4-0.2-0.6-0.6-0.7-0.9c0,0.1-0.1,0.2-0.1,0.3c0,0,0,0,0,0v5.3l0,0c0,0.5,0.3,1,0.8,1.3
      l83.3,48.4c0.5,0.3,1.2,0.3,1.7,0l127.3-73.1c0.5-0.3,0.8-0.8,0.8-1.3l0,0v-0.1c0,0,0-0.1,0-0.1L273,172.7
      C273,172.7,273,172.7,273,172.7z"/>
  </g>
  <g>
    <path fill="#618DA9" d="M99.4,200.7l-5.6,3.2c-0.1,0.1-0.3,0.1-0.5,0l-5.6-3.2c-0.3-0.2-0.3-0.6,0-0.8l5.6-3.3
      c0.2-0.1,0.3-0.1,0.5,0l5.5,3.3C99.7,200,99.7,200.5,99.4,200.7z M101.9,191.6l-5.6,3.3c-0.3,0.2-0.3,0.7,0,0.8l5.6,3.2
      c0.1,0.1,0.3,0.1,0.5,0l5.6-3.2c0.3-0.2,0.3-0.6,0-0.8l-5.5-3.3C102.2,191.5,102,191.5,101.9,191.6z M110.9,194.1l5.6-3.2
      c0.3-0.2,0.3-0.6,0-0.8l-5.5-3.3c-0.2-0.1-0.3-0.1-0.5,0l-5.6,3.3c-0.3,0.2-0.3,0.7,0,0.8l5.6,3.2
      C110.5,194.2,110.7,194.2,110.9,194.1z M118.9,181.8l-5.6,3.3c-0.3,0.2-0.3,0.7,0,0.8l5.6,3.2c0.1,0.1,0.3,0.1,0.5,0l5.6-3.2
      c0.3-0.2,0.3-0.6,0-0.8l-5.5-3.3C119.3,181.7,119.1,181.7,118.9,181.8z M127.5,176.9l-5.6,3.3c-0.3,0.2-0.3,0.7,0,0.8l5.6,3.2
      c0.1,0.1,0.3,0.1,0.5,0l5.6-3.2c0.3-0.2,0.3-0.6,0-0.8l-5.5-3.3C127.8,176.8,127.6,176.8,127.5,176.9z M136,172l-5.6,3.3
      c-0.3,0.2-0.3,0.7,0,0.8l5.6,3.2c0.1,0.1,0.3,0.1,0.5,0l5.6-3.2c0.3-0.2,0.3-0.6,0-0.8l-5.5-3.3C136.3,171.9,136.1,171.9,136,172
      z M144.5,167.1l-5.6,3.3c-0.3,0.2-0.3,0.7,0,0.8l5.6,3.2c0.1,0.1,0.3,0.1,0.5,0l5.6-3.2c0.3-0.2,0.3-0.6,0-0.8l-5.5-3.3
      C144.9,167,144.7,167,144.5,167.1z M153.1,162.2l-5.6,3.3c-0.3,0.2-0.3,0.7,0,0.8l5.6,3.2c0.1,0.1,0.3,0.1,0.5,0l5.6-3.2
      c0.3-0.2,0.3-0.6,0-0.8l-5.5-3.3C153.4,162.1,153.2,162.1,153.1,162.2z M161.6,157.3l-5.6,3.3c-0.3,0.2-0.3,0.7,0,0.8l5.6,3.2
      c0.1,0.1,0.3,0.1,0.5,0l5.6-3.2c0.3-0.2,0.3-0.6,0-0.8l-5.5-3.3C161.9,157.2,161.7,157.2,161.6,157.3z M170.1,152.3l-5.6,3.3
      c-0.3,0.2-0.3,0.7,0,0.8l5.6,3.2c0.1,0.1,0.3,0.1,0.5,0l5.6-3.2c0.3-0.2,0.3-0.6,0-0.8l-5.5-3.3
      C170.4,152.3,170.3,152.3,170.1,152.3z M179.1,147.4c-0.2-0.1-0.3-0.1-0.5,0l-5.6,3.3c-0.3,0.2-0.3,0.7,0,0.8l5.6,3.2
      c0.1,0.1,0.3,0.1,0.5,0l5.6-3.2c0.3-0.2,0.3-0.6,0-0.8L179.1,147.4z M187.2,142.5C187.2,142.5,187.2,142.5,187.2,142.5l-1.5,0.9
      l0,0l-4.2,2.5c-0.3,0.2-0.3,0.7,0,0.8l5.6,3.2c0.1,0.1,0.3,0.1,0.5,0l5.6-3.2c0,0,0,0,0,0l5.7-3.3l2.8-1.6c0.3-0.2,0.3-0.6,0-0.8
      l-5.5-3.3c-0.2-0.1-0.3-0.1-0.5,0l-3.8,2.3L187.2,142.5z M90.6,194.6l-2.5-1.5c-0.1-0.1-0.3-0.1-0.4,0l-5.8,3.3
      c-0.2,0.1-0.3,0.5,0,0.6l2.5,1.5c0.1,0.1,0.3,0.1,0.4,0l5.7-3.3C90.8,195.1,90.8,194.8,90.6,194.6z M93,193.7
      c0.1,0.1,0.3,0.1,0.4,0l5.7-3.3c0.2-0.1,0.3-0.5,0-0.6l-2.5-1.5c-0.1-0.1-0.3-0.1-0.4,0l-5.8,3.3c-0.2,0.1-0.3,0.5,0,0.6
      L93,193.7z M101.5,188.9c0.1,0.1,0.3,0.1,0.4,0l5.7-3.3c0.2-0.1,0.3-0.5,0-0.6l-2.5-1.5c-0.1-0.1-0.3-0.1-0.4,0l-5.8,3.3
      c-0.2,0.1-0.3,0.5,0,0.6L101.5,188.9z M110,184c0.1,0.1,0.3,0.1,0.4,0l5.7-3.3c0.2-0.1,0.3-0.5,0-0.6l-2.5-1.5
      c-0.1-0.1-0.3-0.1-0.4,0l-5.8,3.3c-0.2,0.1-0.3,0.5,0,0.6L110,184z M118.5,179.2c0.1,0.1,0.3,0.1,0.4,0l5.7-3.3
      c0.2-0.1,0.3-0.5,0-0.6l-2.5-1.5c-0.1-0.1-0.3-0.1-0.4,0L116,177c-0.2,0.1-0.3,0.5,0,0.6L118.5,179.2z M127,174.3
      c0.1,0.1,0.3,0.1,0.4,0l5.7-3.3c0.2-0.1,0.3-0.5,0-0.6l-2.5-1.5c-0.1-0.1-0.3-0.1-0.4,0l-5.8,3.3c-0.2,0.1-0.3,0.5,0,0.6
      L127,174.3z M135.6,169.5c0.1,0.1,0.3,0.1,0.4,0l5.7-3.3c0.2-0.1,0.3-0.5,0-0.6l-2.5-1.5c-0.1-0.1-0.3-0.1-0.4,0l-5.8,3.3
      c-0.2,0.1-0.3,0.5,0,0.6L135.6,169.5z M144.1,164.6c0.1,0.1,0.3,0.1,0.4,0l5.7-3.3c0.2-0.1,0.3-0.5,0-0.6l-2.5-1.5
      c-0.1-0.1-0.3-0.1-0.4,0l-5.8,3.3c-0.2,0.1-0.3,0.5,0,0.6L144.1,164.6z M152.6,159.8c0.1,0.1,0.3,0.1,0.4,0l5.7-3.3
      c0.2-0.1,0.3-0.5,0-0.6l-2.5-1.5c-0.1-0.1-0.3-0.1-0.4,0l-5.8,3.3c-0.2,0.1-0.3,0.5,0,0.6L152.6,159.8z M161.1,154.9
      c0.1,0.1,0.3,0.1,0.4,0l5.7-3.3c0.2-0.1,0.3-0.5,0-0.6l-2.5-1.5c-0.1-0.1-0.3-0.1-0.4,0l-5.8,3.3c-0.2,0.1-0.3,0.5,0,0.6
      L161.1,154.9z M169.6,150.1c0.1,0.1,0.3,0.1,0.4,0l5.7-3.3c0.2-0.1,0.3-0.5,0-0.6l-2.5-1.5c-0.1-0.1-0.3-0.1-0.4,0l-5.8,3.3
      c-0.2,0.1-0.3,0.5,0,0.6L169.6,150.1z M178.1,145.3c0.1,0.1,0.3,0.1,0.4,0l5.7-3.3c0.2-0.1,0.3-0.5,0-0.6l-2.5-1.5
      c-0.1-0.1-0.3-0.1-0.4,0l-5.8,3.3c-0.2,0.1-0.3,0.5,0,0.6L178.1,145.3z M186.7,140.4c0.1,0.1,0.3,0.1,0.4,0l5.7-3.3
      c0.2-0.1,0.3-0.5,0-0.6l-2.5-1.5c-0.1-0.1-0.3-0.1-0.4,0l-5.8,3.3c-0.2,0.1-0.3,0.5,0,0.6L186.7,140.4z M119.4,199.1
      c0.1,0.1,0.3,0.1,0.5,0l5.6-3.2c0.3-0.2,0.3-0.6,0-0.8l-5.5-3.3c-0.2-0.1-0.3-0.1-0.5,0l-5.6,3.3c-0.3,0.2-0.3,0.7,0,0.8
      L119.4,199.1z M128.4,194.2l5.6-3.2c0.3-0.2,0.3-0.6,0-0.8l-5.5-3.3c-0.2-0.1-0.3-0.1-0.5,0l-5.6,3.3c-0.3,0.2-0.3,0.7,0,0.8
      l5.6,3.2C128.1,194.3,128.2,194.3,128.4,194.2z M136.5,181.9l-5.6,3.3c-0.3,0.2-0.3,0.7,0,0.8l5.6,3.2c0.1,0.1,0.3,0.1,0.5,0
      l5.6-3.2c0.3-0.2,0.3-0.6,0-0.8l-5.5-3.3C136.8,181.8,136.6,181.8,136.5,181.9z M145.4,184.3l5.6-3.2c0.3-0.2,0.3-0.6,0-0.8
      l-5.5-3.3c-0.2-0.1-0.3-0.1-0.5,0l-5.6,3.3c-0.3,0.2-0.3,0.7,0,0.8l5.6,3.2C145.1,184.4,145.3,184.4,145.4,184.3z M154,179.4
      l5.6-3.2c0.3-0.2,0.3-0.6,0-0.8l-5.5-3.3c-0.2-0.1-0.3-0.1-0.5,0l-5.6,3.3c-0.3,0.2-0.3,0.7,0,0.8l5.6,3.2
      C153.6,179.5,153.8,179.5,154,179.4z M162.5,174.5l5.6-3.2c0.3-0.2,0.3-0.6,0-0.8l-5.5-3.3c-0.2-0.1-0.3-0.1-0.5,0l-5.6,3.3
      c-0.3,0.2-0.3,0.7,0,0.8l5.6,3.2C162.2,174.6,162.4,174.6,162.5,174.5z M171,169.6l5.6-3.2c0.3-0.2,0.3-0.6,0-0.8l-5.5-3.3
      c-0.2-0.1-0.3-0.1-0.5,0l-5.6,3.3c-0.3,0.2-0.3,0.7,0,0.8l5.6,3.2C170.7,169.7,170.9,169.7,171,169.6z M179.6,164.7l5.6-3.2
      c0.3-0.2,0.3-0.6,0-0.8l-5.5-3.3c-0.2-0.1-0.3-0.1-0.5,0l-5.6,3.3c-0.3,0.2-0.3,0.7,0,0.8l5.6,3.2
      C179.2,164.8,179.4,164.8,179.6,164.7z M187.6,152.4l-5.6,3.3c-0.3,0.2-0.3,0.7,0,0.8l5.6,3.2c0.1,0.1,0.3,0.1,0.5,0l5.6-3.2
      c0.3-0.2,0.3-0.6,0-0.8l-5.5-3.3C188,152.3,187.8,152.3,187.6,152.4z M202.2,150.8l-5.5-3.3c-0.2-0.1-0.3-0.1-0.5,0l-5.6,3.3
      c-0.3,0.2-0.3,0.7,0,0.8l5.6,3.2c0.1,0.1,0.3,0.1,0.5,0l5.6-3.2C202.5,151.5,202.5,151,202.2,150.8z M136.9,199.2
      c0.1,0.1,0.3,0.1,0.5,0l5.6-3.2c0.3-0.2,0.3-0.6,0-0.8l-5.5-3.3c-0.2-0.1-0.3-0.1-0.5,0l-5.6,3.3c-0.3,0.2-0.3,0.7,0,0.8
      L136.9,199.2z M145.9,194.3l5.6-3.2c0.3-0.2,0.3-0.6,0-0.8l-5.5-3.3c-0.2-0.1-0.3-0.1-0.5,0l-5.6,3.3c-0.3,0.2-0.3,0.7,0,0.8
      l5.6,3.2C145.6,194.3,145.8,194.3,145.9,194.3z M154.4,189.3l5.6-3.2c0.3-0.2,0.3-0.6,0-0.8l-5.5-3.3c-0.2-0.1-0.3-0.1-0.5,0
      l-5.6,3.3c-0.3,0.2-0.3,0.7,0,0.8l5.6,3.2C154.1,189.4,154.3,189.4,154.4,189.3z M163,184.4l5.6-3.2c0.3-0.2,0.3-0.6,0-0.8
      l-5.5-3.3c-0.2-0.1-0.3-0.1-0.5,0l-5.6,3.3c-0.3,0.2-0.3,0.7,0,0.8l5.6,3.2C162.6,184.5,162.8,184.5,163,184.4z M171.5,179.5
      l5.6-3.2c0.3-0.2,0.3-0.6,0-0.8l-5.5-3.3c-0.2-0.1-0.3-0.1-0.5,0l-5.6,3.3c-0.3,0.2-0.3,0.7,0,0.8l5.6,3.2
      C171.2,179.6,171.4,179.6,171.5,179.5z M180,174.6l5.6-3.2c0.3-0.2,0.3-0.6,0-0.8l-5.5-3.3c-0.2-0.1-0.3-0.1-0.5,0l-5.6,3.3
      c-0.3,0.2-0.3,0.7,0,0.8l5.6,3.2C179.7,174.7,179.9,174.7,180,174.6z M188.6,169.7l5.6-3.2c0.3-0.2,0.3-0.6,0-0.8l-5.5-3.3
      c-0.2-0.1-0.3-0.1-0.5,0l-5.6,3.3c-0.3,0.2-0.3,0.7,0,0.8l5.6,3.2C188.2,169.8,188.4,169.8,188.6,169.7z M191,160.7
      c-0.3,0.2-0.3,0.7,0,0.8l5.6,3.2c0.1,0.1,0.3,0.1,0.5,0l5.6-3.2c0.3-0.2,0.3-0.6,0-0.8l-5.5-3.3c-0.2-0.1-0.3-0.1-0.5,0
      L191,160.7z M120.9,211.5c-0.2-0.1-0.3-0.1-0.5,0l-5.6,3.3c-0.3,0.2-0.3,0.7,0,0.8l5.6,3.2c0.1,0.1,0.3,0.1,0.5,0l5.6-3.2
      c0.3-0.2,0.3-0.6,0-0.8L120.9,211.5z M129.4,206.6c-0.2-0.1-0.3-0.1-0.5,0l-5.6,3.3c-0.3,0.2-0.3,0.7,0,0.8l5.6,3.2
      c0.1,0.1,0.3,0.1,0.5,0l5.6-3.2c0.3-0.2,0.3-0.6,0-0.8L129.4,206.6z M137.9,201.7c-0.2-0.1-0.3-0.1-0.5,0l-5.6,3.3
      c-0.3,0.2-0.3,0.7,0,0.8l5.6,3.2c0.1,0.1,0.3,0.1,0.5,0l5.6-3.2c0.3-0.2,0.3-0.6,0-0.8L137.9,201.7z M146.4,196.8
      c-0.2-0.1-0.3-0.1-0.5,0l-5.6,3.3c-0.3,0.2-0.3,0.7,0,0.8l5.6,3.2c0.1,0.1,0.3,0.1,0.5,0l5.6-3.2c0.3-0.2,0.3-0.6,0-0.8
      L146.4,196.8z M197.1,174.7c0.1,0.1,0.3,0.1,0.5,0l5.6-3.2c0.3-0.2,0.3-0.6,0-0.8l-5.5-3.3c-0.2-0.1-0.3-0.1-0.5,0l-5.6,3.3
      c-0.3,0.2-0.3,0.7,0,0.8L197.1,174.7z M169,191.1l5.8-3.3l2.7-1.6c0,0,0,0,0,0l5.8-3.3l2.7-1.6c0,0,0,0,0,0l5.8-3.3l2.7-1.6
      c0.3-0.2,0.3-0.6,0-0.8l-5.5-3.3c-0.2-0.1-0.3-0.1-0.5,0l-2.7,1.6l-5.7,3.3c0,0-0.1,0-0.1,0l-2.7,1.6l-5.7,3.3c0,0-0.1,0-0.1,0
      l-2.7,1.6l-5.7,3.3c0,0-0.1,0-0.1,0l-2.7,1.6l-5.7,3.3c0,0-0.1,0-0.1,0l-5.6,3.3c-0.3,0.2-0.3,0.7,0,0.8l5.6,3.2
      c0.1,0.1,0.3,0.1,0.5,0l5.6-3.2c0,0,0,0,0,0l5.8-3.3L169,191.1C169,191.1,169,191.1,169,191.1z M199.1,146.8l3.4,1.9l0,0l2.2,1.3
      c0,0,0.1,0,0.1,0l2.4,1.3l-2,1.2c0,0,0,0,0,0l-1.8,1.1l0,0l-3.8,2.2c-0.3,0.2-0.3,0.7,0,0.8l5.6,3.2c0.1,0.1,0.3,0.1,0.5,0
      l5.6-3.2c0,0,0,0,0,0l4.6-2.7l3.9-2.2c0.3-0.2,0.3-0.6,0-0.8l-5.5-3.3l-5.9-3.1l-3.1-1.9c-0.2-0.1-0.3-0.1-0.5,0l-5.6,3.3
      C198.8,146.1,198.8,146.6,199.1,146.8z M115,212L115,212l2.4-1.3c0,0,0,0,0,0l14-8.1l3-1.7c0.3-0.2,0.3-0.6,0-0.8l-5.5-3.3
      c-0.2-0.1-0.3-0.1-0.5,0l-2.3,1.3l-14.7,8.5c0,0-5.7,3.1-5.7,3.1c-0.3,0.2-0.3,0.8,0,1l5.6,3.3c0.1,0.1,0.3,0.1,0.4,0L115,212
      L115,212z M108.4,205.7l6-3.5l2.5-1.4c0.3-0.2,0.3-0.6,0-0.8l-5.5-3.3c-0.2-0.1-0.3-0.1-0.5,0l-3.4,2l-5,2.9c0,0-0.1,0-0.1,0
      l-1.8,1.1l0,0l-3.8,2.2c-0.3,0.2-0.3,0.7,0,0.8l5.6,3.2c0.1,0.1,0.3,0.1,0.5,0l2.2-1.3l0,0L108.4,205.7
      C108.4,205.7,108.4,205.7,108.4,205.7z M206,170.1l5.7-3.3c0.2-0.1,0.3-0.5,0-0.6l-2.5-1.5c-0.1-0.1-0.3-0.1-0.4,0l-5.8,3.3
      c-0.2,0.1-0.3,0.5,0,0.6l2.5,1.5C205.7,170.2,205.9,170.2,206,170.1z M217.8,159.8c-0.1-0.1-0.3-0.1-0.4,0l-5.8,3.3
      c-0.2,0.1-0.3,0.5,0,0.6l2.5,1.5c0.1,0.1,0.3,0.1,0.4,0l5.7-3.3c0.2-0.1,0.3-0.5,0-0.6L217.8,159.8z M226.3,155
      c-0.1-0.1-0.3-0.1-0.4,0l-5.8,3.3c-0.2,0.1-0.3,0.5,0,0.6l2.5,1.5c0.1,0.1,0.3,0.1,0.4,0l5.7-3.3l0-0.6L226.3,155z M216.3,158.3
      l-2.5-1.5c-0.1-0.1-0.3-0.1-0.4,0l-5.8,3.3c-0.2,0.1-0.3,0.5,0,0.6l2.5,1.5c0.1,0.1,0.3,0.1,0.4,0l5.7-3.3
      C216.5,158.8,216.5,158.5,216.3,158.3z M215.8,195.6L193,182.2c-0.4-0.3-1-0.3-1.5,0l-23.1,13.4c-1,0.6-1,1.9,0,2.5l22.9,13.1
      c0.4,0.3,1,0.3,1.4,0l22.9-13.2C216.7,197.6,216.8,196.2,215.8,195.6z"/>
    <g opacity="0.9">
      <path d="M204.8,149c0,0-0.1,0-0.1,0l-2.2-1.3l0,0l-3.2-1.9l-0.1,0.1c-0.3,0.2-0.3,0.7,0,0.8l3.4,1.9l0,0l2.2,1.3
        c0,0,0.1,0,0.1,0l1.5,0.8l0.9-0.5L204.8,149z"/>
      <path d="M173,151.6l5.6,3.2c0.1,0.1,0.3,0.1,0.5,0l5.6-3.2c0.3-0.2,0.3-0.6,0-0.8l-0.1-0.1l-5.4,3.1c-0.1,0.1-0.3,0.1-0.5,0
        l-5.4-3.1l-0.1,0.1C172.7,150.9,172.7,151.4,173,151.6z"/>
      <path d="M202.2,150.8l-0.1-0.1l-5.4,3.1c-0.1,0.1-0.3,0.1-0.5,0l-5.4-3.1l-0.1,0.1c-0.3,0.2-0.3,0.7,0,0.8l5.6,3.2
        c0.1,0.1,0.3,0.1,0.5,0l5.6-3.2C202.5,151.5,202.5,151,202.2,150.8z"/>
      <path d="M154.4,189.3l5.6-3.2c0.3-0.2,0.3-0.6,0-0.8l-0.1-0.1l-5.4,3.1c-0.1,0.1-0.3,0.1-0.5,0l-5.4-3.1l-0.1,0.1
        c-0.3,0.2-0.3,0.7,0,0.8l5.6,3.2C154.1,189.4,154.3,189.4,154.4,189.3z"/>
      <path d="M139.4,181.1l5.6,3.2c0.1,0.1,0.3,0.1,0.5,0l5.6-3.2c0.3-0.2,0.3-0.6,0-0.8l-0.1-0.1l-5.4,3.1c-0.1,0.1-0.3,0.1-0.5,0
        l-5.4-3.1l-0.1,0.1C139.1,180.5,139.1,180.9,139.4,181.1z"/>
      <path d="M194.1,165.6l-0.1-0.1l-5.4,3.1c-0.1,0.1-0.3,0.1-0.5,0l-5.4-3.1l-0.1,0.1c-0.3,0.2-0.3,0.7,0,0.8l5.6,3.2
        c0.1,0.1,0.3,0.1,0.5,0l5.6-3.2C194.5,166.3,194.5,165.8,194.1,165.6z"/>
      <path d="M197.1,174.7c0.1,0.1,0.3,0.1,0.5,0l5.6-3.2c0.3-0.2,0.3-0.6,0-0.8l-0.1-0.1l-5.4,3.1c-0.1,0.1-0.3,0.1-0.5,0l-5.4-3.1
        l-0.1,0.1c-0.3,0.2-0.3,0.7,0,0.8L197.1,174.7z"/>
      <path d="M130.4,176.1l5.6,3.2c0.1,0.1,0.3,0.1,0.5,0l5.6-3.2c0.3-0.2,0.3-0.6,0-0.8l-0.1-0.1l-5.4,3.1c-0.1,0.1-0.3,0.1-0.5,0
        l-5.4-3.1l-0.1,0.1C130.1,175.5,130.1,175.9,130.4,176.1z"/>
      <path d="M121.9,181l5.6,3.2c0.1,0.1,0.3,0.1,0.5,0l5.6-3.2c0.3-0.2,0.3-0.6,0-0.8l-0.1-0.1l-5.4,3.1c-0.1,0.1-0.3,0.1-0.5,0
        l-5.4-3.1l-0.1,0.1C121.5,180.4,121.5,180.9,121.9,181z"/>
      <path d="M113.3,186l5.6,3.2c0.1,0.1,0.3,0.1,0.5,0l5.6-3.2c0.3-0.2,0.3-0.6,0-0.8l-0.1-0.1l-5.4,3.1c-0.1,0.1-0.3,0.1-0.5,0
        l-5.4-3.1l-0.1,0.1C113,185.3,113,185.8,113.3,186z"/>
      <path d="M164.5,156.5l5.6,3.2c0.1,0.1,0.3,0.1,0.5,0l5.6-3.2c0.3-0.2,0.3-0.6,0-0.8l-0.1-0.1l-5.4,3.1c-0.1,0.1-0.3,0.1-0.5,0
        l-5.4-3.1l-0.1,0.1C164.2,155.8,164.2,156.3,164.5,156.5z"/>
      <path d="M138.9,171.2l5.6,3.2c0.1,0.1,0.3,0.1,0.5,0l5.6-3.2c0.3-0.2,0.3-0.6,0-0.8l-0.1-0.1l-5.4,3.1c-0.1,0.1-0.3,0.1-0.5,0
        l-5.4-3.1l-0.1,0.1C138.6,170.6,138.6,171,138.9,171.2z"/>
      <path d="M156,161.4l5.6,3.2c0.1,0.1,0.3,0.1,0.5,0l5.6-3.2c0.3-0.2,0.3-0.6,0-0.8l-0.1-0.1l-5.4,3.1c-0.1,0.1-0.3,0.1-0.5,0
        l-5.4-3.1l-0.1,0.1C155.6,160.7,155.6,161.2,156,161.4z"/>
      <path d="M104.8,190.9l5.6,3.2c0.1,0.1,0.3,0.1,0.5,0l5.6-3.2c0.3-0.2,0.3-0.6,0-0.8l-0.1-0.1l-5.4,3.1c-0.1,0.1-0.3,0.1-0.5,0
        l-5.4-3.1l-0.1,0.1C104.5,190.2,104.5,190.7,104.8,190.9z"/>
      <path d="M147.4,166.3l5.6,3.2c0.1,0.1,0.3,0.1,0.5,0l5.6-3.2c0.3-0.2,0.3-0.6,0-0.8l-0.1-0.1l-5.4,3.1c-0.1,0.1-0.3,0.1-0.5,0
        l-5.4-3.1l-0.1,0.1C147.1,165.7,147.1,166.1,147.4,166.3z"/>
      <path d="M182,156.6l5.6,3.2c0.1,0.1,0.3,0.1,0.5,0l5.6-3.2c0.3-0.2,0.3-0.6,0-0.8l-0.1-0.1l-5.4,3.1c-0.1,0.1-0.3,0.1-0.5,0
        l-5.4-3.1l-0.1,0.1C181.7,155.9,181.7,156.4,182,156.6z"/>
      <path d="M196.6,163.8l-5.4-3.1l-0.1,0.1c-0.3,0.2-0.3,0.7,0,0.8l5.6,3.2c0.1,0.1,0.3,0.1,0.5,0l5.6-3.2c0.3-0.2,0.3-0.6,0-0.8
        l-0.1-0.1l-5.4,3.1C196.9,163.9,196.8,163.9,196.6,163.8z"/>
      <path d="M113.8,195.9l5.6,3.2c0.1,0.1,0.3,0.1,0.5,0l5.6-3.2c0.3-0.2,0.3-0.6,0-0.8l-0.1-0.1l-5.4,3.1c-0.1,0.1-0.3,0.1-0.5,0
        l-5.4-3.1l-0.1,0.1C113.5,195.2,113.5,195.7,113.8,195.9z"/>
      <path d="M142.5,185.2l-0.1-0.1l-5.4,3.1c-0.1,0.1-0.3,0.1-0.5,0l-5.4-3.1l-0.1,0.1c-0.3,0.2-0.3,0.7,0,0.8l5.6,3.2
        c0.1,0.1,0.3,0.1,0.5,0l5.6-3.2C142.8,185.9,142.8,185.4,142.5,185.2z"/>
      <path d="M181.5,146.7l5.6,3.2c0.1,0.1,0.3,0.1,0.5,0l5.6-3.2c0,0,0,0,0,0l5.7-3.3l2.8-1.6c0.3-0.2,0.3-0.6,0-0.8l-0.1-0.1
        l-2.7,1.5l-5.7,3.3c0,0,0,0,0,0l-5.6,3.2c-0.1,0.1-0.3,0.1-0.5,0l-5.4-3.1l-0.1,0.1C181.2,146,181.2,146.5,181.5,146.7z"/>
      <path d="M134,190.1l-0.1-0.1l-5.4,3.1c-0.1,0.1-0.3,0.1-0.5,0l-5.4-3.1l-0.1,0.1c-0.3,0.2-0.3,0.7,0,0.8l5.6,3.2
        c0.1,0.1,0.3,0.1,0.5,0l5.6-3.2C134.3,190.8,134.3,190.3,134,190.1z"/>
      <path d="M205.6,169.1l-2.2-1.3l-0.3,0.2c-0.2,0.1-0.3,0.5,0,0.6l2.5,1.5c0.1,0.1,0.3,0.1,0.4,0l5.7-3.3c0.2-0.1,0.3-0.5,0-0.6
        l-0.3-0.2l-5.4,3.1C205.9,169.2,205.7,169.2,205.6,169.1z"/>
      <path d="M156.4,171.3l5.6,3.2c0.1,0.1,0.3,0.1,0.5,0l5.6-3.2c0.3-0.2,0.3-0.6,0-0.8l-0.1-0.1l-5.4,3.1c-0.1,0.1-0.3,0.1-0.5,0
        l-5.4-3.1l-0.1,0.1C156.1,170.7,156.1,171.1,156.4,171.3z"/>
      <path d="M180,174.6l5.6-3.2c0.3-0.2,0.3-0.6,0-0.8l-0.1-0.1l-5.4,3.1c-0.1,0.1-0.3,0.1-0.5,0l-5.4-3.1l-0.1,0.1
        c-0.3,0.2-0.3,0.7,0,0.8l5.6,3.2C179.7,174.7,179.9,174.7,180,174.6z"/>
      <path d="M165,166.4l5.6,3.2c0.1,0.1,0.3,0.1,0.5,0l5.6-3.2c0.3-0.2,0.3-0.6,0-0.8l-0.1-0.1l-5.4,3.1c-0.1,0.1-0.3,0.1-0.5,0
        l-5.4-3.1l-0.1,0.1C164.6,165.7,164.6,166.2,165,166.4z"/>
      <path d="M147.9,176.2l5.6,3.2c0.1,0.1,0.3,0.1,0.5,0l5.6-3.2c0.3-0.2,0.3-0.6,0-0.8l-0.1-0.1l-5.4,3.1c-0.1,0.1-0.3,0.1-0.5,0
        l-5.4-3.1l-0.1,0.1C147.6,175.6,147.6,176,147.9,176.2z"/>
      <path d="M173.5,161.5l5.6,3.2c0.1,0.1,0.3,0.1,0.5,0l5.6-3.2c0.3-0.2,0.3-0.6,0-0.8l-0.1-0.1l-5.4,3.1c-0.1,0.1-0.3,0.1-0.5,0
        l-5.4-3.1l-0.1,0.1C173.2,160.8,173.2,161.3,173.5,161.5z"/>
      <path d="M171.5,179.5l5.6-3.2c0.3-0.2,0.3-0.6,0-0.8l-0.1-0.1l-5.4,3.1c-0.1,0.1-0.3,0.1-0.5,0l-5.4-3.1l-0.1,0.1
        c-0.3,0.2-0.3,0.7,0,0.8l5.6,3.2C171.2,179.6,171.4,179.6,171.5,179.5z"/>
      <path d="M163,184.4l5.6-3.2c0.3-0.2,0.3-0.6,0-0.8l-0.1-0.1l-5.4,3.1c-0.1,0.1-0.3,0.1-0.5,0l-5.4-3.1l-0.1,0.1
        c-0.3,0.2-0.3,0.7,0,0.8l5.6,3.2C162.6,184.5,162.8,184.5,163,184.4z"/>
      <path d="M169.6,150.1c0.1,0.1,0.3,0.1,0.4,0l5.7-3.3c0.2-0.1,0.3-0.5,0-0.6l-0.3-0.2l-5.4,3.1c-0.1,0.1-0.3,0.1-0.4,0l-2.2-1.3
        l-0.3,0.2c-0.2,0.1-0.3,0.5,0,0.6L169.6,150.1z"/>
      <path d="M134.8,209.9l-5.4,3.1c-0.1,0.1-0.3,0.1-0.5,0l-5.4-3.1l-0.1,0.1c-0.3,0.2-0.3,0.7,0,0.8l5.6,3.2c0.1,0.1,0.3,0.1,0.5,0
        l5.6-3.2c0.3-0.2,0.3-0.6,0-0.8L134.8,209.9z"/>
      <path d="M126.3,214.8l-5.4,3.1c-0.1,0.1-0.3,0.1-0.5,0l-5.4-3.1l-0.1,0.1c-0.3,0.2-0.3,0.7,0,0.8l5.6,3.2c0.1,0.1,0.3,0.1,0.5,0
        l5.6-3.2c0.3-0.2,0.3-0.6,0-0.8L126.3,214.8z"/>
      <path d="M108.4,205.7l6-3.5l2.5-1.4c0.3-0.2,0.3-0.6,0-0.8l-0.1-0.1l-2.3,1.3l-6,3.5c0,0,0,0,0,0l-3.4,1.9l0,0l-2.2,1.3
        c-0.1,0.1-0.3,0.1-0.5,0l-5.4-3.1l-0.1,0.1c-0.3,0.2-0.3,0.7,0,0.8l5.6,3.2c0.1,0.1,0.3,0.1,0.5,0l2.2-1.3l0,0L108.4,205.7
        C108.4,205.7,108.4,205.7,108.4,205.7z"/>
      <path d="M115,212L115,212l2.4-1.3c0,0,0,0,0,0l14-8.1l3-1.7c0.3-0.2,0.3-0.6,0-0.8l-0.1-0.1l-2.9,1.6l-14,8.1c0,0,0,0,0,0
        l-2.3,1.3l-0.1,0v0l-3.2,1.9c-0.1,0.1-0.3,0.1-0.4,0l-5.5-3.2c0,0,0,0,0,0c-0.3,0.2-0.3,0.8,0,1l5.6,3.3c0.1,0.1,0.3,0.1,0.4,0
        L115,212L115,212z"/>
      <path d="M93,193.7c0.1,0.1,0.3,0.1,0.4,0l5.7-3.3c0.2-0.1,0.3-0.5,0-0.6l-0.3-0.2l-5.4,3.1c-0.1,0.1-0.3,0.1-0.4,0l-2.2-1.3
        l-0.3,0.2c-0.2,0.1-0.3,0.5,0,0.6L93,193.7z"/>
      <path d="M90.6,194.6l-0.3-0.2l-5.4,3.1c-0.1,0.1-0.3,0.1-0.4,0l-2.2-1.3l-0.3,0.2c-0.2,0.1-0.3,0.5,0,0.6l2.5,1.5
        c0.1,0.1,0.3,0.1,0.4,0l5.7-3.3C90.8,195.1,90.8,194.8,90.6,194.6z"/>
      <path d="M101.5,188.9c0.1,0.1,0.3,0.1,0.4,0l5.7-3.3c0.2-0.1,0.3-0.5,0-0.6l-0.3-0.2l-5.4,3.1c-0.1,0.1-0.3,0.1-0.4,0l-2.2-1.3
        l-0.3,0.2c-0.2,0.1-0.3,0.5,0,0.6L101.5,188.9z"/>
      <path d="M99.4,199.8l-0.1-0.1l-5.4,3.1c-0.1,0.1-0.3,0.1-0.5,0l-5.4-3.1l-0.1,0.1c-0.3,0.2-0.3,0.7,0,0.8l5.6,3.2
        c0.1,0.1,0.3,0.1,0.5,0l5.6-3.2C99.7,200.5,99.7,200,99.4,199.8z"/>
      <path d="M219.9,161.1l-5.4,3.1c-0.1,0.1-0.3,0.1-0.4,0l-2.2-1.3l-0.3,0.2c-0.2,0.1-0.3,0.5,0,0.6l2.5,1.5c0.1,0.1,0.3,0.1,0.4,0
        l5.7-3.3c0.2-0.1,0.3-0.5,0-0.6L219.9,161.1z"/>
      <path d="M143.3,204.9l-5.4,3.1c-0.1,0.1-0.3,0.1-0.5,0l-5.4-3.1l-0.1,0.1c-0.3,0.2-0.3,0.7,0,0.8l5.6,3.2c0.1,0.1,0.3,0.1,0.5,0
        l5.6-3.2c0.3-0.2,0.3-0.6,0-0.8L143.3,204.9z"/>
      <path d="M223,159.4c-0.1,0.1-0.3,0.1-0.4,0l-2.2-1.3l-0.3,0.2c-0.2,0.1-0.3,0.5,0,0.6l2.5,1.5c0.1,0.1,0.3,0.1,0.4,0l5.7-3.3
        l0-0.6l-0.3-0.2L223,159.4z"/>
      <path d="M169,191.1l5.8-3.3l2.7-1.6c0,0,0,0,0,0l5.8-3.3l2.7-1.6c0,0,0,0,0,0l5.8-3.3l2.7-1.6c0.3-0.2,0.3-0.6,0-0.8l-0.1-0.1
        l-2.6,1.5l-5.8,3.3c0,0,0,0,0,0l-2.7,1.6l-5.8,3.3c0,0,0,0,0,0l-2.7,1.6l-5.8,3.3c0,0,0,0,0,0l-2.7,1.6l-5.8,3.3c0,0,0,0,0,0
        l-5.6,3.2c-0.1,0.1-0.3,0.1-0.5,0l-5.4-3.1l-0.1,0.1c-0.3,0.2-0.3,0.7,0,0.8l5.6,3.2c0.1,0.1,0.3,0.1,0.5,0l5.6-3.2c0,0,0,0,0,0
        l5.8-3.3L169,191.1C169,191.1,169,191.1,169,191.1z"/>
      <path d="M151.8,200l-5.4,3.1c-0.1,0.1-0.3,0.1-0.5,0l-5.4-3.1l-0.1,0.1c-0.3,0.2-0.3,0.7,0,0.8l5.6,3.2c0.1,0.1,0.3,0.1,0.5,0
        l5.6-3.2c0.3-0.2,0.3-0.6,0-0.8L151.8,200z"/>
      <path d="M161.1,154.9c0.1,0.1,0.3,0.1,0.4,0l5.7-3.3c0.2-0.1,0.3-0.5,0-0.6l-0.3-0.2l-5.4,3.1c-0.1,0.1-0.3,0.1-0.4,0l-2.2-1.3
        l-0.3,0.2c-0.2,0.1-0.3,0.5,0,0.6L161.1,154.9z"/>
      <path d="M216.3,158.3l-0.3-0.2l-5.4,3.1c-0.1,0.1-0.3,0.1-0.4,0l-2.2-1.3l-0.3,0.2c-0.2,0.1-0.3,0.5,0,0.6l2.5,1.5
        c0.1,0.1,0.3,0.1,0.4,0l5.7-3.3C216.5,158.8,216.5,158.5,216.3,158.3z"/>
      <path d="M219.7,150.9l-0.1-0.1l-3.8,2.2l-4.6,2.7c0,0,0,0,0,0l-5.6,3.2c-0.1,0.1-0.3,0.1-0.5,0l-5.4-3.1l-0.1,0.1
        c-0.3,0.2-0.3,0.7,0,0.8l5.6,3.2c0.1,0.1,0.3,0.1,0.5,0l5.6-3.2c0,0,0,0,0,0l4.6-2.7l3.9-2.2C220,151.6,220.1,151.1,219.7,150.9
        z"/>
      <path d="M178.1,145.3c0.1,0.1,0.3,0.1,0.4,0l5.7-3.3c0.2-0.1,0.3-0.5,0-0.6l-0.3-0.2l-5.4,3.1c-0.1,0.1-0.3,0.1-0.4,0l-2.2-1.3
        l-0.3,0.2c-0.2,0.1-0.3,0.5,0,0.6L178.1,145.3z"/>
      <path d="M186.7,140.4c0.1,0.1,0.3,0.1,0.4,0l5.7-3.3c0.2-0.1,0.3-0.5,0-0.6l-0.3-0.2l-5.4,3.1c-0.1,0.1-0.3,0.1-0.4,0l-2.2-1.3
        l-0.3,0.2c-0.2,0.1-0.3,0.5,0,0.6L186.7,140.4z"/>
      <path d="M151.5,190.2l-0.1-0.1l-5.4,3.1c-0.1,0.1-0.3,0.1-0.5,0l-5.4-3.1l-0.1,0.1c-0.3,0.2-0.3,0.7,0,0.8l5.6,3.2
        c0.1,0.1,0.3,0.1,0.5,0l5.6-3.2C151.8,190.9,151.8,190.4,151.5,190.2z"/>
      <path d="M143,195.1l-0.1-0.1l-5.4,3.1c-0.1,0.1-0.3,0.1-0.5,0l-5.4-3.1l-0.1,0.1c-0.3,0.2-0.3,0.7,0,0.8l5.6,3.2
        c0.1,0.1,0.3,0.1,0.5,0l5.6-3.2C143.3,195.8,143.3,195.3,143,195.1z"/>
      <path d="M152.6,159.8c0.1,0.1,0.3,0.1,0.4,0l5.7-3.3c0.2-0.1,0.3-0.5,0-0.6l-0.3-0.2l-5.4,3.1c-0.1,0.1-0.3,0.1-0.4,0l-2.2-1.3
        l-0.3,0.2c-0.2,0.1-0.3,0.5,0,0.6L152.6,159.8z"/>
      <path d="M96.3,195.8l5.6,3.2c0.1,0.1,0.3,0.1,0.5,0l5.6-3.2c0.3-0.2,0.3-0.6,0-0.8l-0.1-0.1l-5.4,3.1c-0.1,0.1-0.3,0.1-0.5,0
        l-5.4-3.1l-0.1,0.1C95.9,195.1,95.9,195.6,96.3,195.8z"/>
      <path d="M127,174.3c0.1,0.1,0.3,0.1,0.4,0l5.7-3.3c0.2-0.1,0.3-0.5,0-0.6l-0.3-0.2l-5.4,3.1c-0.1,0.1-0.3,0.1-0.4,0l-2.2-1.3
        l-0.3,0.2c-0.2,0.1-0.3,0.5,0,0.6L127,174.3z"/>
      <path d="M118.5,179.2c0.1,0.1,0.3,0.1,0.4,0l5.7-3.3c0.2-0.1,0.3-0.5,0-0.6l-0.3-0.2l-5.4,3.1c-0.1,0.1-0.3,0.1-0.4,0l-2.2-1.3
        L116,177c-0.2,0.1-0.3,0.5,0,0.6L118.5,179.2z"/>
      <path d="M135.6,169.5c0.1,0.1,0.3,0.1,0.4,0l5.7-3.3c0.2-0.1,0.3-0.5,0-0.6l-0.3-0.2l-5.4,3.1c-0.1,0.1-0.3,0.1-0.4,0l-2.2-1.3
        l-0.3,0.2c-0.2,0.1-0.3,0.5,0,0.6L135.6,169.5z"/>
      <path d="M110,184c0.1,0.1,0.3,0.1,0.4,0l5.7-3.3c0.2-0.1,0.3-0.5,0-0.6l-0.3-0.2l-5.4,3.1c-0.1,0.1-0.3,0.1-0.4,0l-2.2-1.3
        l-0.3,0.2c-0.2,0.1-0.3,0.5,0,0.6L110,184z"/>
      <path d="M144.1,164.6c0.1,0.1,0.3,0.1,0.4,0l5.7-3.3c0.2-0.1,0.3-0.5,0-0.6l-0.3-0.2l-5.4,3.1c-0.1,0.1-0.3,0.1-0.4,0l-2.2-1.3
        l-0.3,0.2c-0.2,0.1-0.3,0.5,0,0.6L144.1,164.6z"/>
      <path d="M168.5,196.6l23.1-13.4c0.4-0.3,1-0.3,1.5,0l22.8,13.4c0.3,0.2,0.5,0.4,0.6,0.7c0.2-0.6,0-1.4-0.6-1.7L193,182.2
        c-0.4-0.3-1-0.3-1.5,0l-23.1,13.4c-0.6,0.4-0.8,1.1-0.6,1.7C168,197.1,168.2,196.8,168.5,196.6z"/>
    </g>
  </g>
  <g>
    <path fill="#042E47" d="M186.4,19.4c0,0,0.1,0,0.1,0l0,0c0,0-0.1-0.1-0.1-0.1l-3.3-1.9c0,0,0,0,0,0c-0.6-0.4-1.3-0.5-2-0.1
      L55.9,89.8c-0.6,0.3-0.9,1-0.9,1.6v95.6c0,0.6,0.3,1.1,0.7,1.5l0,0l0.1,0.1c0.1,0.1,0.2,0.1,0.3,0.2l3.3,2c0.6,0.3,1.3,0.4,1.9,0
      l125-71.8c0.6-0.3,0.7-1,0.7-1.6V21C187,20.3,186.9,19.8,186.4,19.4z"/>
    <path fill="#C9E9F5" d="M64.2,181.2V97.4c0-0.6,0.3-1.2,0.9-1.5l114.9-66.5c1.2-0.7,2.6,0.2,2.6,1.5v84.3c0,0.6-0.3,1.2-0.9,1.5
      L66.8,182.7C65.6,183.3,64.2,182.5,64.2,181.2z"/>
    <path opacity="0.9" fill="#2C2D2D" d="M59,190.1V94.4c0-0.7,0.4-1.3,0.9-1.6l125.2-72.5c0.6-0.3,1.2-0.3,1.8,0
      c-0.1-0.4-0.2-0.7-0.5-0.9c0,0,0.1,0,0.1,0l0,0c0,0-0.1-0.1-0.1-0.1l-3.3-1.9c0,0,0,0,0,0c-0.6-0.4-1.3-0.5-2-0.1L55.9,89.8
      c-0.6,0.3-0.9,1-0.9,1.6v95.6c0,0.6,0.3,1.1,0.7,1.5l0,0l0.1,0.1c0.1,0.1,0.2,0.1,0.3,0.2l3,1.7C59,190.4,59,190.2,59,190.1z"/>
  </g>
  <g>
    <path fill="#243C50" d="M73.8,210.6v-2.7c0-0.2,0.2-0.3,0.4-0.2l5.1,3c0.1,0,0.1,0.1,0.1,0.2v2.7c0,0.2-0.2,0.3-0.4,0.2l-5.1-3
      C73.9,210.7,73.8,210.7,73.8,210.6z"/>
    <g>
      <path fill="#243C50" d="M64,201.9l8.1,4.7c0.1,0.1,0.2,0.2,0.2,0.3v2.6c0,0.3-0.3,0.4-0.5,0.3l-8.1-4.7
        c-0.1-0.1-0.2-0.2-0.2-0.3v-2.6C63.5,201.9,63.8,201.8,64,201.9z"/>
    </g>
  </g>
  <g class="gradient-map">
    <linearGradient id="SVGID_1_" gradientUnits="userSpaceOnUse" x1="187" y1="104.1709" x2="55" y2="104.1709">
      <stop  offset="0" style="stop-color:#4FA6A4"/>
      <stop  offset="1" style="stop-color:#635891"/>
    </linearGradient>
    <path fill="url(#SVGID_1_)" d="M61.3,190.8l125-71.8c0.6-0.3,0.7-1,0.7-1.6V21c0-0.3,0-0.5-0.1-0.7c0,0,0,0,0,0
      c0-0.1-0.1-0.2-0.1-0.3c0-0.1-0.1-0.1-0.1-0.2c0,0,0-0.1-0.1-0.1c-0.1-0.1-0.2-0.2-0.3-0.2c0,0,0.1,0,0.1,0l0,0
      c0,0-0.1-0.1-0.1-0.1l-3.3-1.9l-2-0.1L55.9,89.8c-0.6,0.3-0.9,1-0.9,1.6v95.6c0,0.6,0.3,1.1,0.7,1.5l0,0l0.1,0.1
      c0.1,0.1,0.2,0.1,0.3,0.2l3.3,2C60,191.1,60.7,191.1,61.3,190.8z"/>
    <linearGradient id="SVGID_2_" gradientUnits="userSpaceOnUse" x1="273.0064" y1="187.4884" x2="59" y2="187.4884">
      <stop  offset="0" style="stop-color:#4FA6A4"/>
      <stop  offset="1" style="stop-color:#635891"/>
    </linearGradient>
    <path fill="url(#SVGID_2_)" d="M273,172.7C273,172.7,273,172.7,273,172.7c0-0.2,0-0.4-0.1-0.5c0,0,0,0,0,0
      c-0.1-0.4-0.3-0.7-0.7-1l-83-48.4c-0.5-0.3-1.2-0.3-1.7,0L59.8,195.9c-0.4,0.2-0.6,0.6-0.7,1c0,0.1-0.1,0.2-0.1,0.3c0,0,0,0,0,0
      v5.3l0,0c0,0.5,0.3,1,0.8,1.3l83.3,48.4c0.5,0.3,1.2,0.3,1.7,0l127.3-73.1c0.5-0.3,0.8-0.8,0.8-1.3l0,0v-0.1c0,0,0-0.1,0-0.1
      L273,172.7z"/>
  </g>
</g>
</svg>
