<?xml version="1.0" encoding="UTF-8" standalone="no"?>
<svg
   xmlns:dc="http://purl.org/dc/elements/1.1/"
   xmlns:cc="http://creativecommons.org/ns#"
   xmlns:rdf="http://www.w3.org/1999/02/22-rdf-syntax-ns#"
   xmlns:svg="http://www.w3.org/2000/svg"
   xmlns="http://www.w3.org/2000/svg"
   xmlns:sodipodi="http://sodipodi.sourceforge.net/DTD/sodipodi-0.dtd"
   xmlns:inkscape="http://www.inkscape.org/namespaces/inkscape"
   width="512"
   height="512"
   viewBox="0 0 512 512"
   version="1.1"
   preserveAspectRatio="xMidYMid"
   id="svg22"
   sodipodi:docname="html.svg"
   inkscape:version="0.92.5 (2060ec1f9f, 2020-04-08)">
  <metadata
     id="metadata28">
    <rdf:RDF>
      <cc:Work
         rdf:about="">
        <dc:format>image/svg+xml</dc:format>
        <dc:type
           rdf:resource="http://purl.org/dc/dcmitype/StillImage" />
        <dc:title></dc:title>
      </cc:Work>
    </rdf:RDF>
  </metadata>
  <defs
     id="defs26" />
  <sodipodi:namedview
     pagecolor="#ffffff"
     bordercolor="#666666"
     borderopacity="1"
     objecttolerance="10"
     gridtolerance="10"
     guidetolerance="10"
     inkscape:pageopacity="0"
     inkscape:pageshadow="2"
     inkscape:window-width="1366"
     inkscape:window-height="704"
     id="namedview24"
     showgrid="false"
     inkscape:zoom="0.65373961"
     inkscape:cx="232.78178"
     inkscape:cy="249.33474"
     inkscape:window-x="0"
     inkscape:window-y="0"
     inkscape:window-maximized="1"
     inkscape:current-layer="g20" />
  <g
     id="g20"
     transform="translate(0,151)">
    <g
       id="g65"
       transform="matrix(1.7296129,0,0,1.7296129,-48.257969,-255.16517)">
      <path
         style="fill:#e44d26"
         inkscape:connector-curvature="0"
         d="M 303.46583,63.573452 280.22469,323.93319 175.75489,352.89565 71.572737,323.97398 48.35621,63.573452 Z"
         id="path2-3" />
      <path
         style="fill:#f16529"
         inkscape:connector-curvature="0"
         d="m 175.91102,330.75798 84.4167,-23.4036 19.8611,-222.489323 h -104.2778 z"
         id="path4-6" />
      <path
         style="fill:#ebebeb"
         inkscape:connector-curvature="0"
         d="m 130.73124,148.73987 h 45.17978 v -31.9374 H 95.828034 l 0.764483,8.56826 7.849493,88.00984 h 71.46901 v -31.9367 h -42.2611 z"
         id="path6-7" />
      <path
         style="fill:#ebebeb"
         inkscape:connector-curvature="0"
         d="M 137.92878,229.34963 H 105.869 l 4.47437,50.14576 65.42066,18.16123 0.14699,-0.0408 v -33.22796 l -0.13996,0.0373 -35.56852,-9.60422 -2.27376,-25.4713 z"
         id="path8-5" />
      <path
         style="fill:#ffffff"
         inkscape:connector-curvature="0"
         d="m 175.8006,213.38057 h 39.32695 l -3.70708,41.41996 -35.61987,9.61407 v 33.22655 l 65.47271,-18.14576 0.48035,-5.39569 7.50488,-84.07983 0.77925,-8.576 H 175.8006 Z"
         id="path18-5" />
      <path
         style="fill:#ffffff"
         inkscape:connector-curvature="0"
         d="m 175.8006,148.66181 v 0.0781 h 77.14321 l 0.6407,-7.17855 1.45512,-16.19059 0.76379,-8.56826 H 175.8006 v 31.85934 z"
         id="path20" />
    </g>
  </g>
</svg>
