<?xml version="1.0" encoding="UTF-8" standalone="no"?>
<svg
   xmlns:dc="http://purl.org/dc/elements/1.1/"
   xmlns:cc="http://creativecommons.org/ns#"
   xmlns:rdf="http://www.w3.org/1999/02/22-rdf-syntax-ns#"
   xmlns:svg="http://www.w3.org/2000/svg"
   xmlns="http://www.w3.org/2000/svg"
   xmlns:sodipodi="http://sodipodi.sourceforge.net/DTD/sodipodi-0.dtd"
   xmlns:inkscape="http://www.inkscape.org/namespaces/inkscape"
   width="512"
   height="512"
   viewBox="0 0 512 512"
   version="1.1"
   preserveAspectRatio="xMidYMid"
   id="svg22"
   sodipodi:docname="nodejs.svg"
   inkscape:version="0.92.5 (2060ec1f9f, 2020-04-08)">
  <metadata
     id="metadata28">
    <rdf:RDF>
      <cc:Work
         rdf:about="">
        <dc:format>image/svg+xml</dc:format>
        <dc:type
           rdf:resource="http://purl.org/dc/dcmitype/StillImage" />
        <dc:title></dc:title>
      </cc:Work>
    </rdf:RDF>
  </metadata>
  <defs
     id="defs26" />
  <sodipodi:namedview
     pagecolor="#ffffff"
     bordercolor="#666666"
     borderopacity="1"
     objecttolerance="10"
     gridtolerance="10"
     guidetolerance="10"
     inkscape:pageopacity="0"
     inkscape:pageshadow="2"
     inkscape:window-width="1366"
     inkscape:window-height="704"
     id="namedview24"
     showgrid="false"
     inkscape:zoom="0.65373961"
     inkscape:cx="264.90466"
     inkscape:cy="246.27542"
     inkscape:window-x="0"
     inkscape:window-y="0"
     inkscape:window-maximized="1"
     inkscape:current-layer="g20" />
  <g
     id="g20"
     transform="translate(0,151)">
    <path
       style="fill:#8cc84b;stroke-width:3.91817808;fill-opacity:1"
       inkscape:connector-curvature="0"
       id="path72"
       d="m 256.00002,351.46135 c -6.79271,0 -13.13251,-1.81141 -19.01954,-4.98133 l -60.22847,-35.77485 c -9.05694,-4.9813 -4.52847,-6.79267 -1.81141,-7.6984 12.22683,-4.07557 14.49107,-4.98129 27.17076,-12.22683 1.35855,-0.90568 3.16993,-0.45282 4.52848,0.45286 l 46.19026,27.62363 c 1.81137,0.90569 4.07561,0.90569 5.43416,0 l 180.68549,-104.6074 c 1.81137,-0.90569 2.71706,-2.71706 2.71706,-4.9813 V 0.50577715 c 0,-2.26423675 -0.90569,-4.07561045 -2.71706,-4.98129745 L 258.26426,-108.63002 c -1.81141,-0.90573 -4.07561,-0.90573 -5.43416,0 L 72.144612,-4.4755203 c -1.811413,0.905687 -2.717099,3.1699629 -2.717099,4.98133665 V 209.26773 c 0,1.81138 0.905686,4.07561 2.717099,4.9813 l 49.360188,28.52931 c 26.7179,13.58538 43.47321,-2.26423 43.47321,-18.11385 V 18.619632 c 0,-2.717061 2.26423,-5.434122 5.43416,-5.434122 h 23.09511 c 2.7171,0 5.43416,2.264237 5.43416,5.434122 V 224.66449 c 0,35.77484 -19.47236,56.60572 -53.4358,56.60572 -10.41546,0 -18.56668,0 -41.66183,-11.3211 L 56.294995,242.77834 C 44.520987,235.98563 37.275453,223.30598 37.275453,209.7206 V 0.95864015 c 0,-13.58538115 7.245534,-26.26507515 19.019542,-33.05774615 L 236.98048,-136.70647 c 11.32115,-6.33985 26.7179,-6.33985 38.03909,0 l 180.68548,104.607404 c 11.77397,6.792631 19.0195,19.472325 19.0195,33.05770615 V 209.7206 c 0,13.58538 -7.24553,26.26503 -19.0195,33.05774 L 275.01957,347.38578 c -5.88703,2.71706 -12.6797,4.07561 -19.01955,4.07557 z m 55.70004,-143.55217 c -79.24801,0 -95.55049,-36.22767 -95.55049,-67.02117 0,-2.71706 2.26424,-5.43413 5.43416,-5.43413 h 23.54797 c 2.7171,0 4.98134,1.81138 4.98134,4.52844 3.62275,24.00084 14.03821,35.77484 62.03988,35.77484 38.03905,0 54.34149,-8.60408 54.34149,-28.98213 0,-11.77401 -4.52848,-20.37809 -63.85126,-26.26508 -49.36019,-4.98129 -80.15373,-15.84962 -80.15373,-55.247211 0,-36.680474 30.79354,-58.4170756 82.41797,-58.4170756 57.96427,0 86.49354,19.9252286 90.11633,63.3984126 0,1.35851 -0.45286,2.71706 -1.35855,4.07561 -0.90569,0.905687 -2.26424,1.811374 -3.62279,1.811374 h -23.54797 c -2.26424,0 -4.52848,-1.811374 -4.9813,-4.075611 -5.43416,-24.906505 -19.47237,-33.057726 -56.60572,-33.057726 -41.66183,0 -46.64313,14.491068 -46.64313,25.359329 0,13.132557 5.88699,17.208168 62.03988,24.453702 55.70004,7.245534 81.96507,17.660986 81.96507,56.605726 -0.45282,39.85042 -33.0577,62.4927 -90.56915,62.4927 z" />
  </g>
</svg>
